<mxfile host="app.diagrams.net" modified="2024-05-17T14:32:35.568Z" agent="Mozilla/5.0 (Windows NT 10.0; Win64; x64) AppleWebKit/537.36 (KHTML, like Gecko) Chrome/125.0.0.0 Safari/537.36" etag="TYMiw8K0d57AEMN9a0ig" version="24.4.4" type="google">
  <diagram id="R2lEEEUBdFMjLlhIrx00" name="Page-1">
    <mxGraphModel grid="1" page="1" gridSize="10" guides="1" tooltips="1" connect="1" arrows="1" fold="1" pageScale="1" pageWidth="850" pageHeight="1100" math="0" shadow="0" extFonts="Permanent Marker^https://fonts.googleapis.com/css?family=Permanent+Marker">
      <root>
        <mxCell id="0" />
        <mxCell id="1" parent="0" />
        <mxCell id="B9YTnvrDeYWZBAEzdXmM-1" value="&lt;div&gt;Usuario&lt;/div&gt;" style="rounded=0;whiteSpace=wrap;html=1;fillColor=#dae8fc;strokeColor=#6c8ebf;" vertex="1" parent="1">
          <mxGeometry x="370" y="350" width="120" height="60" as="geometry" />
        </mxCell>
        <mxCell id="B9YTnvrDeYWZBAEzdXmM-2" value="Juegos" style="rounded=0;whiteSpace=wrap;html=1;fillColor=#dae8fc;strokeColor=#6c8ebf;" vertex="1" parent="1">
          <mxGeometry x="370" y="130" width="120" height="60" as="geometry" />
        </mxCell>
        <mxCell id="B9YTnvrDeYWZBAEzdXmM-3" value="Participaciones" style="rounded=0;whiteSpace=wrap;html=1;fillColor=#dae8fc;strokeColor=#6c8ebf;" vertex="1" parent="1">
          <mxGeometry x="600" y="240" width="120" height="60" as="geometry" />
        </mxCell>
        <mxCell id="B9YTnvrDeYWZBAEzdXmM-4" value="Transacción" style="rounded=0;whiteSpace=wrap;html=1;fillColor=#dae8fc;strokeColor=#6c8ebf;" vertex="1" parent="1">
          <mxGeometry x="372.5" y="550" width="120" height="60" as="geometry" />
        </mxCell>
        <mxCell id="B9YTnvrDeYWZBAEzdXmM-5" value="Participa en" style="rhombus;whiteSpace=wrap;html=1;fillColor=#fff2cc;strokeColor=#d6b656;" vertex="1" parent="1">
          <mxGeometry x="390" y="230" width="80" height="80" as="geometry" />
        </mxCell>
        <mxCell id="B9YTnvrDeYWZBAEzdXmM-6" value="Hace" style="rhombus;whiteSpace=wrap;html=1;fillColor=#fff2cc;strokeColor=#d6b656;" vertex="1" parent="1">
          <mxGeometry x="392.5" y="440" width="80" height="80" as="geometry" />
        </mxCell>
        <mxCell id="B9YTnvrDeYWZBAEzdXmM-13" value="" style="endArrow=none;html=1;rounded=0;" edge="1" parent="1" source="B9YTnvrDeYWZBAEzdXmM-2" target="B9YTnvrDeYWZBAEzdXmM-5">
          <mxGeometry width="50" height="50" relative="1" as="geometry">
            <mxPoint x="510" y="166.84421052631578" as="sourcePoint" />
            <mxPoint x="675" y="160" as="targetPoint" />
          </mxGeometry>
        </mxCell>
        <mxCell id="B9YTnvrDeYWZBAEzdXmM-15" value="" style="endArrow=none;html=1;rounded=0;" edge="1" parent="1" source="B9YTnvrDeYWZBAEzdXmM-1" target="B9YTnvrDeYWZBAEzdXmM-5">
          <mxGeometry width="50" height="50" relative="1" as="geometry">
            <mxPoint x="520" y="440" as="sourcePoint" />
            <mxPoint x="570" y="390" as="targetPoint" />
          </mxGeometry>
        </mxCell>
        <mxCell id="B9YTnvrDeYWZBAEzdXmM-17" value="" style="endArrow=none;html=1;rounded=0;" edge="1" parent="1" source="B9YTnvrDeYWZBAEzdXmM-6" target="B9YTnvrDeYWZBAEzdXmM-1">
          <mxGeometry width="50" height="50" relative="1" as="geometry">
            <mxPoint x="360" y="500" as="sourcePoint" />
            <mxPoint x="410" y="450" as="targetPoint" />
          </mxGeometry>
        </mxCell>
        <mxCell id="B9YTnvrDeYWZBAEzdXmM-18" value="" style="endArrow=none;html=1;rounded=0;" edge="1" parent="1" source="B9YTnvrDeYWZBAEzdXmM-4" target="B9YTnvrDeYWZBAEzdXmM-6">
          <mxGeometry width="50" height="50" relative="1" as="geometry">
            <mxPoint x="400" y="630" as="sourcePoint" />
            <mxPoint x="450" y="580" as="targetPoint" />
          </mxGeometry>
        </mxCell>
        <mxCell id="B9YTnvrDeYWZBAEzdXmM-19" value="&lt;u&gt;dni&lt;/u&gt;" style="ellipse;whiteSpace=wrap;html=1;" vertex="1" parent="1">
          <mxGeometry x="280" y="355" width="75" height="50" as="geometry" />
        </mxCell>
        <mxCell id="B9YTnvrDeYWZBAEzdXmM-20" value="&lt;u&gt;id_partido&lt;/u&gt;" style="ellipse;whiteSpace=wrap;html=1;" vertex="1" parent="1">
          <mxGeometry x="730" y="245" width="75" height="50" as="geometry" />
        </mxCell>
        <mxCell id="B9YTnvrDeYWZBAEzdXmM-21" value="&lt;u&gt;id_transacción&lt;/u&gt;" style="ellipse;whiteSpace=wrap;html=1;" vertex="1" parent="1">
          <mxGeometry x="380" y="620" width="105" height="70" as="geometry" />
        </mxCell>
        <mxCell id="B9YTnvrDeYWZBAEzdXmM-23" value="&lt;u&gt;id_juego&lt;/u&gt;" style="ellipse;whiteSpace=wrap;html=1;" vertex="1" parent="1">
          <mxGeometry x="392.5" y="70" width="75" height="50" as="geometry" />
        </mxCell>
        <mxCell id="B9YTnvrDeYWZBAEzdXmM-24" value="" style="endArrow=none;dashed=1;html=1;dashPattern=1 3;strokeWidth=2;rounded=0;" edge="1" parent="1" source="B9YTnvrDeYWZBAEzdXmM-5" target="B9YTnvrDeYWZBAEzdXmM-3">
          <mxGeometry width="50" height="50" relative="1" as="geometry">
            <mxPoint x="520" y="320" as="sourcePoint" />
            <mxPoint x="570" y="270" as="targetPoint" />
          </mxGeometry>
        </mxCell>
        <mxCell id="B9YTnvrDeYWZBAEzdXmM-27" value="N:N" style="text;html=1;align=center;verticalAlign=middle;resizable=0;points=[];autosize=1;strokeColor=none;fillColor=none;" vertex="1" parent="1">
          <mxGeometry x="340" y="255" width="40" height="30" as="geometry" />
        </mxCell>
        <mxCell id="C3OcBuz0bXuArvXqiO4y-1" value="Deportes" style="rounded=0;whiteSpace=wrap;html=1;fillColor=#dae8fc;strokeColor=#6c8ebf;" vertex="1" parent="1">
          <mxGeometry x="720" y="350" width="120" height="60" as="geometry" />
        </mxCell>
        <mxCell id="C3OcBuz0bXuArvXqiO4y-2" value="apuesta en" style="rhombus;whiteSpace=wrap;html=1;fillColor=#fff2cc;strokeColor=#d6b656;" vertex="1" parent="1">
          <mxGeometry x="560" y="340" width="80" height="80" as="geometry" />
        </mxCell>
        <mxCell id="C3OcBuz0bXuArvXqiO4y-3" value="" style="endArrow=none;html=1;rounded=0;" edge="1" parent="1" source="B9YTnvrDeYWZBAEzdXmM-1" target="C3OcBuz0bXuArvXqiO4y-2">
          <mxGeometry width="50" height="50" relative="1" as="geometry">
            <mxPoint x="620" y="530" as="sourcePoint" />
            <mxPoint x="670" y="480" as="targetPoint" />
          </mxGeometry>
        </mxCell>
        <mxCell id="C3OcBuz0bXuArvXqiO4y-4" value="" style="endArrow=none;html=1;rounded=0;" edge="1" parent="1" source="C3OcBuz0bXuArvXqiO4y-2" target="C3OcBuz0bXuArvXqiO4y-1">
          <mxGeometry width="50" height="50" relative="1" as="geometry">
            <mxPoint x="500" y="390" as="sourcePoint" />
            <mxPoint x="570" y="390" as="targetPoint" />
          </mxGeometry>
        </mxCell>
        <mxCell id="C3OcBuz0bXuArvXqiO4y-5" value="&lt;u&gt;id_deporte&lt;/u&gt;" style="ellipse;whiteSpace=wrap;html=1;" vertex="1" parent="1">
          <mxGeometry x="742.5" y="420" width="75" height="50" as="geometry" />
        </mxCell>
        <mxCell id="C3OcBuz0bXuArvXqiO4y-6" value="Apuestas" style="rounded=0;whiteSpace=wrap;html=1;fillColor=#dae8fc;strokeColor=#6c8ebf;" vertex="1" parent="1">
          <mxGeometry x="540" y="470" width="120" height="60" as="geometry" />
        </mxCell>
        <mxCell id="C3OcBuz0bXuArvXqiO4y-7" value="&lt;u&gt;id_apuestas&lt;/u&gt;" style="ellipse;whiteSpace=wrap;html=1;" vertex="1" parent="1">
          <mxGeometry x="560" y="550" width="75" height="50" as="geometry" />
        </mxCell>
        <mxCell id="C3OcBuz0bXuArvXqiO4y-8" value="" style="endArrow=none;dashed=1;html=1;dashPattern=1 3;strokeWidth=2;rounded=0;" edge="1" parent="1" source="C3OcBuz0bXuArvXqiO4y-2" target="C3OcBuz0bXuArvXqiO4y-6">
          <mxGeometry width="50" height="50" relative="1" as="geometry">
            <mxPoint x="480" y="280" as="sourcePoint" />
            <mxPoint x="610" y="280" as="targetPoint" />
          </mxGeometry>
        </mxCell>
        <mxCell id="C3OcBuz0bXuArvXqiO4y-9" value="Admnistrador" style="rounded=0;whiteSpace=wrap;html=1;fillColor=#dae8fc;strokeColor=#6c8ebf;" vertex="1" parent="1">
          <mxGeometry x="1130" y="130" width="120" height="60" as="geometry" />
        </mxCell>
        <mxCell id="C3OcBuz0bXuArvXqiO4y-10" value="controla" style="rhombus;whiteSpace=wrap;html=1;fillColor=#fff2cc;strokeColor=#d6b656;" vertex="1" parent="1">
          <mxGeometry x="920" y="120" width="80" height="80" as="geometry" />
        </mxCell>
        <mxCell id="C3OcBuz0bXuArvXqiO4y-11" value="" style="endArrow=none;html=1;rounded=0;" edge="1" parent="1" source="B9YTnvrDeYWZBAEzdXmM-2" target="C3OcBuz0bXuArvXqiO4y-10">
          <mxGeometry width="50" height="50" relative="1" as="geometry">
            <mxPoint x="520" y="150" as="sourcePoint" />
            <mxPoint x="590" y="150" as="targetPoint" />
          </mxGeometry>
        </mxCell>
        <mxCell id="C3OcBuz0bXuArvXqiO4y-12" value="" style="endArrow=none;html=1;rounded=0;" edge="1" parent="1" source="C3OcBuz0bXuArvXqiO4y-9" target="C3OcBuz0bXuArvXqiO4y-10">
          <mxGeometry width="50" height="50" relative="1" as="geometry">
            <mxPoint x="510" y="400" as="sourcePoint" />
            <mxPoint x="580" y="400" as="targetPoint" />
          </mxGeometry>
        </mxCell>
        <mxCell id="C3OcBuz0bXuArvXqiO4y-15" value="" style="endArrow=none;html=1;rounded=0;" edge="1" parent="1" source="C3OcBuz0bXuArvXqiO4y-10" target="C3OcBuz0bXuArvXqiO4y-1">
          <mxGeometry width="50" height="50" relative="1" as="geometry">
            <mxPoint x="880" y="170" as="sourcePoint" />
            <mxPoint x="930" y="340" as="targetPoint" />
            <Array as="points">
              <mxPoint x="960" y="380" />
            </Array>
          </mxGeometry>
        </mxCell>
        <mxCell id="C3OcBuz0bXuArvXqiO4y-17" value="N:N" style="text;html=1;align=center;verticalAlign=middle;resizable=0;points=[];autosize=1;strokeColor=none;fillColor=none;" vertex="1" parent="1">
          <mxGeometry x="940" y="90" width="40" height="30" as="geometry" />
        </mxCell>
        <mxCell id="C3OcBuz0bXuArvXqiO4y-19" value="Registro de cambios" style="rounded=0;whiteSpace=wrap;html=1;fillColor=#dae8fc;strokeColor=#6c8ebf;" vertex="1" parent="1">
          <mxGeometry x="1080" y="285" width="120" height="60" as="geometry" />
        </mxCell>
        <mxCell id="C3OcBuz0bXuArvXqiO4y-20" value="" style="endArrow=none;dashed=1;html=1;dashPattern=1 3;strokeWidth=2;rounded=0;entryX=0;entryY=0;entryDx=0;entryDy=0;" edge="1" parent="1" source="C3OcBuz0bXuArvXqiO4y-10" target="C3OcBuz0bXuArvXqiO4y-19">
          <mxGeometry width="50" height="50" relative="1" as="geometry">
            <mxPoint x="1020" y="230" as="sourcePoint" />
            <mxPoint x="1150" y="230" as="targetPoint" />
          </mxGeometry>
        </mxCell>
        <mxCell id="C3OcBuz0bXuArvXqiO4y-21" value="&lt;u&gt;id_admin&lt;/u&gt;" style="ellipse;whiteSpace=wrap;html=1;" vertex="1" parent="1">
          <mxGeometry x="1152.5" y="70" width="75" height="50" as="geometry" />
        </mxCell>
        <mxCell id="C3OcBuz0bXuArvXqiO4y-22" value="&lt;u&gt;id_cambio&lt;/u&gt;" style="ellipse;whiteSpace=wrap;html=1;" vertex="1" parent="1">
          <mxGeometry x="1102.5" y="355" width="75" height="50" as="geometry" />
        </mxCell>
        <mxCell id="hik6aCUA7Qb9m9Gh-bRY-1" value="N:N" style="text;html=1;align=center;verticalAlign=middle;resizable=0;points=[];autosize=1;strokeColor=none;fillColor=none;" vertex="1" parent="1">
          <mxGeometry x="580" y="310" width="40" height="30" as="geometry" />
        </mxCell>
        <mxCell id="hik6aCUA7Qb9m9Gh-bRY-2" value="1:N" style="text;html=1;align=center;verticalAlign=middle;resizable=0;points=[];autosize=1;strokeColor=none;fillColor=none;" vertex="1" parent="1">
          <mxGeometry x="350" y="465" width="40" height="30" as="geometry" />
        </mxCell>
      </root>
    </mxGraphModel>
  </diagram>
</mxfile>
